<?xml version="1.0" encoding="UTF-8"?>
<!-- Generated by Pixelmator Pro 3.7 -->
<svg width="1872" height="1404" viewBox="0 0 1872 1404" xmlns="http://www.w3.org/2000/svg">
    <g id="Group">
        <path id="Path" fill="none" stroke="#ffffff" stroke-width="4" stroke-linecap="round" stroke-linejoin="round" opacity="0.095482" d="M -439.893372 46.697021 L -441.603668 43.241455 L -444.675354 40.413086 L -449.94342 37.711548 L -452.177246 37.557007 L -452.994446 38.039185 L -452.604828 40.916504 L -451.045929 43.284912 L -443.495941 50.457153 L -394.438568 75.255859 L -364.575348 89.391357 L -329.773926 106.945068 L -305.031586 117.547241 L -267.674133 134.771851 L -245.926651 143.36377 L -181.51947 171.418701 L -150.920898 183.430908 L -43.506718 229.158813 L -23.918957 239.314209 L 84.948555 292.479004 L 253.623169 380.2146 L 278.252777 393.319275 L 327.751312 421.515259 L 376.936188 450.979248 L 401.464752 466.549805 L 523.451111 546.855713 L 570.677063 580.742249 L 639.816772 628.539368 L 662.056274 644.825439 L 705.022888 679.227783 L 770.718811 726.236206 L 814.687805 758.940674 L 899.13208 825.175476 L 940.055603 858.326294 L 1015.864624 925.373535 L 1065.393433 972.935608 L 1094.437134 1003.389343 L 1112.201904 1024.787109 L 1126.888916 1046.664063 L 1140.679199 1070.200684 L 1146.301514 1081.332031 L 1155.345337 1101.763184 L 1162.234131 1119.295288 L 1164.69458 1127.247437 L 1167.76123 1141.330933 L 1168.190918 1152.516479 L 1166.766846 1160.609131 L 1165.697754 1163.761597 L 1163.977905 1166.215942 L 1161.949829 1168.099609 L 1159.419556 1169.314575 L 1153.074829 1169.999023 L 1145.071045 1169.117432 L 1134.984863 1166.291016 L 1122.338745 1161.228271 L 1107.599243 1154.023193 L 1080.879883 1138.619629 L 988.081116 1081.51416 L 930.82019 1047.21936 L 864.94342 1009.766785 L 815.657898 982.533936 L 650.000183 893.700439 L 588.287598 863.445618 L 555.846619 848.245056 L 488.295929 818.110535 L 347.771027 756.636292 L 312.341187 741.677856 L 138.131882 673.523193 L 104.53553 661.085938 L -52.806835 605.300781 L -135.45488 573.40979 L -161.096878 562.901123 L -254.700729 523.487244 L -373.957825 470.214966 L -444.747498 439.744141 L -476.740295 424.261414 L -537.522705 396.346436 L -551.270447 389.222595 L -576.732666 373.934326 L -589.04303 367.470947 L -621.81366 347.11438 L -649.618286 327.284302 L -657.594055 320.770508 L -671.187561 307.550415 L -676.993469 301.002197 L -686.459961 288.629761 L -689.860779 282.30957 L -694.108826 270.651489 L -695.11438 265.30127 L -694.967651 259.575562 L -694.070618 254.587524 L -689.953064 246.213135 L -686.447876 241.865723 L -682.060242 237.871704 L -670.111938 229.932983 L -662.669983 226.375732 L -635.594421 219.593018 L -612.029785 214.630981 L -598.554932 212.597412 L -569.715576 211.277954 L -536.562866 210.921753 L -481.08725 213.556519 L -441.472595 217.452881 L -378.346252 225.949097 L -357.148743 229.02771 L -294.200958 240.091675 L -218.593216 255.398804 L -146.056396 272.458618 L -124.151131 278.459106 L -94.368401 285.609375 L -75.331024 287.882568 L -65.978622 290.365967 L -56.430222 292.066406 L -36.992092 294.655029 L -14.910256 295.150879 L 8.177799 296.90564 L 32.935661 296.940063 L 45.951031 296.321411 L 73.253632 293.088379 L 87.321007 292.13269 L 101.889008 290.064087 L 131.842789 283.800049 L 147.137207 279.664795 L 177.455368 269.363037 L 192.399765 263.180542 L 222.703247 248.588745 L 237.509567 240.401367 L 252.024353 231.391846 L 266.265991 221.564331 L 280.303284 210.873657 L 307.64679 186.683105 L 320.769165 173.146484 L 358.224335 128.394165 L 369.611389 112.590942 L 380.58194 95.803711 L 390.971436 78.410522 L 409.837433 41.811035 L 418.101715 23.462646 L 432.297241 -13.819458 L 444.577179 -52.229736 L 454.294586 -89.783813 L 462.620605 -128.067383 L 472.643524 -182.356323 L 477.532379 -217.101196 L 481.875885 -241.325684 L 486.728119 -263.862671 L 493.667114 -288.17334 L 496.82309 -294.939819 L 498.534515 -297.317505 L 501.959167 -300.271484 L 505.494446 -301.578369 L 507.222076 -301.486206 L 508.683594 -300.233643 L 511.069489 -296.172607 L 512.096924 -292.951782 L 516.1474 -256.804932 L 517.813538 -212.053101 L 517.4104 -175.214111 L 512.29187 -91.047363 L 504.682587 -5.57959 L 494.576874 87.119995 L 486.247894 152.554565 L 461.981873 327.117065 L 453.002502 403.305359 L 444.437286 485.410095 L 436.343567 574.970215 L 419.555908 805.80603 L 403.458191 1113.752686 L 394.261658 1274.528931 L 382.323395 1442.511353 L 377.461548 1500.529419 L 371.927856 1558.285278 L 365.531677 1615.960205 L 358.508636 1672.192261 L 350.555511 1726.972412 L 341.553162 1782.065186 L 331.415405 1837.781616 L 319.844543 1893.674438 L 307.382629 1948.564209 L 294.010742 2001.462646 L 279.754974 2052.492432 L 264.681335 2102.310791 L 248.899994 2150.201904 L 232.54837 2196.330322 L 216.0513 2240.40332 L 199.178009 2282.400146 L 165.185638 2359.861572 L 148.708771 2394.321045 L 117.59803 2452.76709 L 102.903633 2477.972656 L 88.449783 2500.066895 L 74.968819 2518.482178 L 62.47776 2534.316406 L 50.474606 2548.050049 L 39.634018 2558.896729 L 30.270037 2566.608154 L 22.382524 2571.156738 L 15.709819 2572.744629 L 10.636535 2570.340332 L 7.059988 2565.950684 L 4.575894 2560.115723 L 3.343593 2551.4375 L 3.281157 2540.333008 L 4.465167 2527.114502 L 6.866213 2511.508789 L 10.520499 2493.081055 L 20.976906 2449.777344 L 34.527237 2400.019287 L 77.519432 2250.384766 L 168.311081 1901.79895 L 278.956604 1488.176147 L 303.558167 1387.943726 L 351.079987 1178.786011 L 373.070984 1073.613281 L 383.252167 1019.962891 L 409.300964 856.857544 L 417.235962 801.738708 L 431.309326 693.274292 L 443.175934 586.402832 L 447.994171 534.495361 L 455.111359 432.21106 L 457.578491 380.849854 L 459.44104 284.773804 L 459.253967 240.240601 L 458.241089 198.106201 L 454.138153 119.116821 L 450.84552 81.242676 L 446.489014 43.996948 L 436.253387 -27.237793 L 430.457764 -61.69873 L 423.914703 -94.998535 L 401.65274 -190.629517 L 388.889923 -232.791992 L 375.318909 -273.35498 L 334.468262 -380.937622 L 322.312927 -410.821533 L 310.522827 -437.735229 L 294.916748 -468.233398 L 287.123047 -480.603027 L 281.095978 -484.827026 L 278.894745 -484.876953 L 277.161377 -483.560913 L 274.657104 -476.448364 L 272.762177 -455.295288 L 271.238159 -349.559204 L 271.473785 -142.909302 L 273.625122 22.408936 L 275.08075 233.786621 L 274.794434 320.938965 L 272.741425 408.343933 L 261.120972 694.833252 L 255.85997 794.025024 L 252.477478 845.398499 L 244.19278 951.383301 L 234.367126 1059.055664 L 222.491562 1170.742676 L 215.890442 1226.150757 L 200.488312 1336.486328 L 167.044296 1565.581787 L 157.729568 1624.81665 L 135.76918 1743.808228 L 123.428337 1803.119019 L 110.195168 1862.867554 L 96.07547 1922.800293 L 81.035538 1982.568115 L 64.812401 2041.413086 L 29.852104 2156.94873 L 11.591453 2214.006836 L -7.258748 2270.343506 L -26.813555 2325.582031 L -47.330479 2379.266602 L -68.717979 2431.261719 L -90.998283 2481.531006 L -114.041397 2530.26123 L -137.98468 2577.323242"/>
    </g>
</svg>
